<svg width="195" height="201" viewBox="0 0 195 201" fill="none" xmlns="http://www.w3.org/2000/svg">
<path d="M1.31689 200.614C5.75856 196.926 13.135 191.218 16.0343 189.211C19.0155 187.148 22.6022 184.646 26.1563 181.801C26.9897 181.134 27.0833 180.094 27.8682 179.657C31.66 177.549 35.225 178.365 38.5148 176.944C42.0963 175.398 46.0017 175.798 50.2107 175.087C57.268 173.897 60.4707 172.101 64.2851 169.816C67.6532 167.799 68.8964 163.834 70.7346 159.697C71.1979 158.654 71.7839 157.844 72.4426 156.984C77.6 150.251 92.8167 154.969 97.1479 156.68C101.936 158.572 106.236 156.407 107.81 155.127C109.517 153.74 110.97 151.846 112.153 149.997C114.364 146.544 113.345 141.311 113.999 133.066C115.989 108.009 114.922 101.673 115.707 97.0823C116.487 92.5228 117.021 86.8177 117.419 83.3904C117.831 79.8492 118.867 75.984 119.652 72.2658C120.451 68.4822 121.755 64.0036 122.153 58.8649C122.457 54.9466 125.431 51.7323 126.883 48.305C128.383 44.763 130.685 42.5929 132.535 40.03C133.477 38.7254 135.947 38.879 138.31 39.1614C142.305 39.6389 144.886 44.2873 147.785 46.0031C151.747 48.3476 154.621 55.121 156.988 58.6894C159.983 63.2053 162.511 66.8104 165.402 69.6772C166.798 71.0615 170.644 71.3972 175.374 71.1148C178.13 70.9503 179.607 68.8385 181.05 67.1313C182.381 65.5573 183.031 63.7041 183.425 56.0666C185.15 22.6733 186.178 18.6493 188.285 14.9311C190.352 11.2827 192.758 8.08942 195.381 5.51364C196.784 4.13664 198.541 3.22881 200.896 2.37307C207.64 -0.0775018 211.156 4.06744 214.97 5.5008C218.199 6.71423 220.623 9.49284 226.011 9.07781C226.95 8.37182 226.95 6.95985 227.21 5.80887C227.471 4.6579 227.992 3.81071 229.317 2.08212" stroke="#1E69F4" stroke-width="2" stroke-linecap="round"/>
</svg>
