<svg width="214" height="147" viewBox="0 0 214 147" fill="none" xmlns="http://www.w3.org/2000/svg">
<g clip-path="url(#clip0_219_836)">
<mask id="mask0_219_836" style="mask-type:luminance" maskUnits="userSpaceOnUse" x="0" y="0" width="214" height="147">
<path d="M213.317 0.614258H0.316895V146.614H213.317V0.614258Z" fill="white"/>
</mask>
<g mask="url(#mask0_219_836)">
<mask id="mask1_219_836" style="mask-type:luminance" maskUnits="userSpaceOnUse" x="27" y="100" width="17" height="29">
<path d="M43.8046 100.989H27.8296V128.364H43.8046V100.989Z" fill="white"/>
</mask>
<g mask="url(#mask1_219_836)">
<path d="M27.8296 106.464C27.8296 103.441 31.4057 100.989 35.8171 100.989C40.2285 100.989 43.8046 103.441 43.8046 106.464V128.364H27.8296V106.464Z" fill="#001B43"/>
</g>
<path d="M30.2239 139.999V139.291L32.6364 137.76C32.8415 137.624 33.0136 137.501 33.1526 137.392C33.2937 137.283 33.4008 137.177 33.4736 137.073C33.5463 136.967 33.5828 136.852 33.5828 136.73C33.5828 136.594 33.5376 136.477 33.4471 136.378C33.3566 136.279 33.2331 136.202 33.0765 136.149C32.9199 136.095 32.7422 136.067 32.5436 136.067C32.3363 136.067 32.1554 136.096 32.001 136.154C31.8465 136.211 31.7274 136.294 31.6436 136.401C31.5597 136.508 31.5179 136.636 31.5179 136.784H30.1577C30.1577 136.48 30.2581 136.217 30.4588 135.993C30.6597 135.769 30.9409 135.596 31.3027 135.473C31.6646 135.351 32.0815 135.29 32.5536 135.29C33.0389 135.29 33.4614 135.348 33.821 135.467C34.1828 135.583 34.4641 135.745 34.6649 135.952C34.8656 136.159 34.9661 136.396 34.9661 136.664C34.9661 136.839 34.9153 137.013 34.8138 137.183C34.7145 137.355 34.5369 137.544 34.281 137.753C34.0251 137.96 33.6644 138.209 33.1989 138.499L32.2094 139.164V139.196H35.0554V139.999H30.2239ZM38.7509 140.101C38.1818 140.099 37.692 140.003 37.2816 139.812C36.8735 139.622 36.5592 139.346 36.3385 138.985C36.1201 138.623 36.012 138.189 36.0142 137.68C36.0142 137.174 36.1234 136.742 36.3418 136.385C36.5624 136.028 36.8768 135.757 37.285 135.571C37.6953 135.383 38.184 135.29 38.7509 135.29C39.3179 135.29 39.8055 135.383 40.2136 135.571C40.6239 135.758 40.9394 136.031 41.16 136.387C41.3807 136.743 41.4898 137.174 41.4876 137.68C41.4876 138.19 41.3774 138.626 41.1568 138.987C40.9383 139.348 40.6251 139.624 40.2169 139.815C39.8088 140.005 39.3201 140.101 38.7509 140.101ZM38.7509 139.286C39.1392 139.286 39.4492 139.153 39.6808 138.885C39.9124 138.617 40.0272 138.215 40.025 137.68C40.025 137.328 39.972 137.035 39.8661 136.8C39.7625 136.566 39.6146 136.39 39.4227 136.272C39.233 136.154 39.0091 136.095 38.7509 136.095C38.3649 136.095 38.056 136.227 37.8244 136.492C37.5927 136.756 37.4758 137.152 37.4736 137.68C37.4736 138.037 37.5255 138.335 37.6291 138.574C37.735 138.811 37.884 138.99 38.0759 139.109C38.2678 139.227 38.4928 139.286 38.7509 139.286Z" fill="#C8C8C8"/>
<mask id="mask2_219_836" style="mask-type:luminance" maskUnits="userSpaceOnUse" x="56" y="87" width="17" height="42">
<path d="M72.2045 87.3018H56.2295V128.364H72.2045V87.3018Z" fill="white"/>
</mask>
<g mask="url(#mask2_219_836)">
<path d="M56.2295 92.7768C56.2295 89.7532 59.8056 87.3018 64.217 87.3018C68.6281 87.3018 72.2045 89.7532 72.2045 92.7768V128.364H56.2295V92.7768Z" fill="#001B43"/>
</g>
<path d="M60.9921 140.062C60.498 140.062 60.0578 140.004 59.6717 139.887C59.2879 139.769 58.9846 139.608 58.7617 139.402C58.5411 139.195 58.4275 138.956 58.4209 138.685H59.8637C59.8725 138.799 59.9265 138.899 60.0259 138.985C60.1273 139.069 60.2619 139.135 60.4296 139.182C60.5972 139.229 60.7859 139.252 60.9955 139.252C61.2139 139.252 61.4069 139.226 61.5746 139.173C61.7422 139.12 61.8735 139.047 61.9684 138.953C62.0632 138.859 62.1107 138.751 62.1107 138.628C62.1107 138.504 62.0599 138.395 61.9584 138.299C61.8591 138.203 61.7157 138.127 61.5282 138.073C61.3429 138.018 61.1223 137.991 60.8664 137.991H60.2343V137.27H60.8664C61.0826 137.27 61.2734 137.244 61.4388 137.193C61.6065 137.141 61.7367 137.07 61.8294 136.98C61.922 136.887 61.9684 136.78 61.9684 136.657C61.9684 136.541 61.9275 136.439 61.8459 136.351C61.7665 136.262 61.654 136.192 61.5084 136.142C61.365 136.093 61.1973 136.067 61.0054 136.067C60.8112 136.067 60.6336 136.092 60.4726 136.14C60.3115 136.187 60.1825 136.255 60.0854 136.342C59.9883 136.43 59.9365 136.532 59.9299 136.651H58.5566C58.5631 136.383 58.6746 136.147 58.8908 135.943C59.107 135.739 59.3982 135.579 59.7644 135.464C60.1328 135.348 60.5487 135.29 61.012 135.29C61.4797 135.29 61.8889 135.348 62.2397 135.464C62.5905 135.581 62.8629 135.738 63.0571 135.936C63.2534 136.133 63.3505 136.354 63.3483 136.599C63.3505 136.859 63.2325 137.075 62.9942 137.249C62.7582 137.423 62.4504 137.534 62.0709 137.58V137.617C62.5695 137.661 62.949 137.779 63.2093 137.973C63.4719 138.165 63.602 138.405 63.5998 138.694C63.602 138.959 63.4906 139.194 63.2656 139.4C63.0427 139.605 62.735 139.767 62.3423 139.885C61.9496 140.003 61.4995 140.062 60.9921 140.062ZM67.2868 140.101C66.7179 140.099 66.2281 140.003 65.8178 139.812C65.4096 139.622 65.0953 139.346 64.8747 138.985C64.6563 138.623 64.5482 138.189 64.5504 137.68C64.5504 137.174 64.6596 136.742 64.878 136.385C65.0986 136.028 65.413 135.757 65.8211 135.571C66.2315 135.383 66.7201 135.29 67.2868 135.29C67.8539 135.29 68.3418 135.383 68.7499 135.571C69.1599 135.758 69.4754 136.031 69.6964 136.387C69.9167 136.743 70.0259 137.174 70.0239 137.68C70.0239 138.19 69.9134 138.626 69.6931 138.987C69.4747 139.348 69.1612 139.624 68.7532 139.815C68.3452 140.005 67.8566 140.101 67.2868 140.101ZM67.2868 139.286C67.6756 139.286 67.9851 139.153 68.2167 138.885C68.4483 138.617 68.5635 138.215 68.5608 137.68C68.5608 137.328 68.5082 137.035 68.4024 136.8C68.2986 136.566 68.1508 136.39 67.9591 136.272C67.7694 136.154 67.5451 136.095 67.2868 136.095C66.9008 136.095 66.5922 136.227 66.3605 136.492C66.1288 136.756 66.012 137.152 66.0098 137.68C66.0098 138.037 66.0615 138.335 66.1652 138.574C66.2712 138.811 66.42 138.99 66.612 139.109C66.8039 139.227 67.0292 139.286 67.2868 139.286Z" fill="#C8C8C8"/>
<mask id="mask3_219_836" style="mask-type:luminance" maskUnits="userSpaceOnUse" x="84" y="46" width="17" height="83">
<path d="M100.605 46.2393H84.6299V128.364H100.605V46.2393Z" fill="white"/>
</mask>
<g mask="url(#mask3_219_836)">
<path d="M84.6299 51.7143C84.6299 48.6907 88.2063 46.2393 92.6174 46.2393C97.0285 46.2393 100.605 48.6907 100.605 51.7143V128.364H84.6299V51.7143Z" fill="#001B43"/>
</g>
<path d="M89.484 140.062C89.1352 140.061 88.7984 140.02 88.4742 139.942C88.152 139.863 87.8632 139.735 87.6076 139.559C87.3513 139.382 87.1483 139.147 86.9985 138.855C86.8507 138.564 86.7769 138.205 86.7769 137.78C86.7789 137.39 86.8441 137.042 86.9719 136.735C87.1023 136.426 87.2874 136.164 87.5277 135.95C87.7706 135.735 88.0608 135.572 88.3983 135.46C88.7358 135.346 89.1139 135.29 89.5332 135.29C89.9858 135.29 90.3845 135.35 90.7313 135.471C91.0775 135.591 91.3557 135.753 91.5654 135.959C91.777 136.164 91.9048 136.395 91.9488 136.651H90.5356C90.4811 136.489 90.3652 136.362 90.1882 136.27C90.0118 136.177 89.7935 136.131 89.5332 136.131C89.0919 136.131 88.7564 136.263 88.5274 136.526C88.2998 136.789 88.184 137.146 88.18 137.599H88.2259C88.3278 137.461 88.4642 137.344 88.6366 137.247C88.811 137.149 89.008 137.074 89.229 137.022C89.4513 136.969 89.6863 136.943 89.9339 136.943C90.3353 136.943 90.6927 137.008 91.0056 137.138C91.3191 137.267 91.566 137.444 91.7471 137.669C91.9281 137.894 92.0187 138.152 92.0187 138.442C92.0187 138.757 91.9115 139.037 91.6978 139.282C91.4855 139.527 91.1893 139.719 90.8072 139.858C90.4278 139.995 89.9865 140.064 89.484 140.062ZM89.4773 139.291C89.6976 139.291 89.8953 139.254 90.069 139.182C90.2434 139.109 90.3805 139.011 90.4797 138.887C90.5789 138.763 90.6288 138.624 90.6288 138.47C90.6288 138.315 90.5789 138.177 90.4797 138.054C90.3825 137.932 90.2481 137.835 90.0757 137.762C89.904 137.689 89.7076 137.653 89.4866 137.653C89.3215 137.653 89.1684 137.674 89.0267 137.717C88.8882 137.759 88.7657 137.818 88.6599 137.893C88.5561 137.969 88.4742 138.057 88.415 138.157C88.3551 138.255 88.3251 138.36 88.3251 138.472C88.3251 138.622 88.375 138.758 88.4742 138.883C88.576 139.007 88.7125 139.106 88.8849 139.18C89.0586 139.254 89.2563 139.291 89.4773 139.291ZM95.6916 140.101C95.1225 140.099 94.6326 140.003 94.2225 139.812C93.8145 139.622 93.4997 139.346 93.2793 138.985C93.061 138.623 92.9525 138.189 92.9552 137.68C92.9552 137.174 93.0644 136.742 93.2827 136.385C93.503 136.028 93.8178 135.757 94.2259 135.571C94.6359 135.383 95.1245 135.29 95.6916 135.29C96.2587 135.29 96.7466 135.383 97.1546 135.571C97.5646 135.758 97.8801 136.031 98.1011 136.387C98.3215 136.743 98.4306 137.174 98.4286 137.68C98.4286 138.19 98.3181 138.626 98.0978 138.987C97.8788 139.348 97.566 139.624 97.1579 139.815C96.7492 140.005 96.2607 140.101 95.6916 140.101ZM95.6916 139.286C96.0803 139.286 96.3898 139.153 96.6214 138.885C96.8531 138.617 96.9682 138.215 96.9656 137.68C96.9656 137.328 96.913 137.035 96.8072 136.8C96.7033 136.566 96.5555 136.39 96.3632 136.272C96.1735 136.154 95.9498 136.095 95.6916 136.095C95.3055 136.095 94.9967 136.227 94.765 136.492C94.5334 136.756 94.4169 137.152 94.4142 137.68C94.4142 138.037 94.4662 138.335 94.57 138.574C94.6758 138.811 94.8249 138.99 95.0166 139.109C95.2083 139.227 95.4333 139.286 95.6916 139.286Z" fill="#C8C8C8"/>
<mask id="mask4_219_836" style="mask-type:luminance" maskUnits="userSpaceOnUse" x="113" y="18" width="17" height="111">
<path d="M129.004 18.8643H113.029V128.364H129.004V18.8643Z" fill="white"/>
</mask>
<g mask="url(#mask4_219_836)">
<path d="M113.029 24.3393C113.029 21.3155 116.606 18.8643 121.017 18.8643C125.429 18.8643 129.004 21.3155 129.004 24.3393V128.364H113.029V24.3393Z" fill="white"/>
</g>
<path d="M117.807 140.062C117.297 140.062 116.843 140.005 116.446 139.892C116.051 139.777 115.742 139.62 115.516 139.422C115.291 139.224 115.179 139 115.179 138.749C115.179 138.555 115.243 138.377 115.371 138.215C115.501 138.052 115.677 137.917 115.9 137.809C116.123 137.701 116.372 137.631 116.648 137.601V137.569C116.286 137.519 115.993 137.399 115.768 137.209C115.543 137.016 115.43 136.793 115.43 136.539C115.43 136.299 115.533 136.085 115.739 135.897C115.944 135.708 116.224 135.56 116.582 135.453C116.942 135.344 117.35 135.29 117.807 135.29C118.263 135.29 118.67 135.344 119.027 135.453C119.387 135.562 119.67 135.711 119.875 135.9C120.08 136.087 120.184 136.301 120.186 136.539C120.184 136.795 120.069 137.018 119.841 137.209C119.614 137.399 119.323 137.519 118.968 137.569V137.601C119.24 137.631 119.485 137.701 119.706 137.809C119.929 137.917 120.105 138.052 120.235 138.215C120.368 138.377 120.435 138.555 120.437 138.749C120.435 139 120.321 139.224 120.096 139.422C119.871 139.62 119.561 139.777 119.163 139.892C118.768 140.005 118.316 140.062 117.807 140.062ZM117.807 139.341C118.034 139.341 118.232 139.313 118.402 139.257C118.572 139.199 118.705 139.121 118.799 139.021C118.896 138.919 118.945 138.803 118.945 138.672C118.945 138.537 118.895 138.418 118.796 138.315C118.697 138.211 118.562 138.129 118.392 138.07C118.223 138.01 118.027 137.98 117.807 137.98C117.588 137.98 117.393 138.01 117.221 138.07C117.048 138.129 116.913 138.211 116.813 138.315C116.716 138.418 116.668 138.537 116.668 138.672C116.668 138.803 116.716 138.919 116.81 139.021C116.905 139.121 117.038 139.199 117.211 139.257C117.383 139.313 117.582 139.341 117.807 139.341ZM117.807 137.265C117.996 137.265 118.165 137.239 118.312 137.186C118.461 137.133 118.577 137.059 118.66 136.966C118.744 136.872 118.786 136.764 118.786 136.641C118.786 136.521 118.744 136.415 118.66 136.324C118.577 136.232 118.462 136.16 118.316 136.109C118.171 136.056 118 136.029 117.807 136.029C117.614 136.029 117.445 136.056 117.297 136.109C117.149 136.16 117.033 136.232 116.949 136.324C116.868 136.415 116.827 136.521 116.827 136.641C116.827 136.764 116.869 136.872 116.953 136.966C117.036 137.059 117.152 137.133 117.3 137.186C117.448 137.239 117.617 137.265 117.807 137.265ZM124.097 140.101C123.527 140.099 123.038 140.003 122.627 139.812C122.219 139.622 121.905 139.346 121.684 138.985C121.466 138.623 121.358 138.189 121.36 137.68C121.36 137.174 121.469 136.742 121.687 136.385C121.908 136.028 122.222 135.757 122.63 135.571C123.041 135.383 123.53 135.29 124.097 135.29C124.663 135.29 125.151 135.383 125.559 135.571C125.969 135.758 126.285 136.031 126.506 136.387C126.726 136.743 126.835 137.174 126.833 137.68C126.833 138.19 126.723 138.626 126.502 138.987C126.284 139.348 125.97 139.624 125.562 139.815C125.154 140.005 124.666 140.101 124.097 140.101ZM124.097 139.286C124.485 139.286 124.795 139.153 125.027 138.885C125.258 138.617 125.373 138.215 125.371 137.68C125.371 137.328 125.318 137.035 125.212 136.8C125.108 136.566 124.96 136.39 124.768 136.272C124.579 136.154 124.354 136.095 124.097 136.095C123.711 136.095 123.402 136.227 123.17 136.492C122.939 136.756 122.821 137.152 122.819 137.68C122.819 138.037 122.871 138.335 122.975 138.574C123.08 138.811 123.229 138.99 123.421 139.109C123.614 139.227 123.838 139.286 124.097 139.286Z" fill="#C8C8C8"/>
<mask id="mask5_219_836" style="mask-type:luminance" maskUnits="userSpaceOnUse" x="141" y="114" width="17" height="15">
<path d="M157.405 114.677H141.43V128.364H157.405V114.677Z" fill="white"/>
</mask>
<g mask="url(#mask5_219_836)">
<path d="M141.43 120.152C141.43 117.128 145.006 114.677 149.417 114.677C153.828 114.677 157.405 117.128 157.405 120.152V128.364H141.43V120.152Z" fill="#001B43"/>
</g>
<path d="M147.427 135.353V139.999H145.994V136.286H145.954L144.403 136.952V136.081L146.08 135.353H147.427ZM151.695 140.101C151.126 140.099 150.636 140.003 150.226 139.812C149.818 139.622 149.504 139.346 149.283 138.985C149.065 138.623 148.956 138.189 148.958 137.68C148.958 137.174 149.068 136.742 149.287 136.385C149.507 136.028 149.821 135.757 150.23 135.571C150.64 135.383 151.128 135.29 151.695 135.29C152.263 135.29 152.75 135.383 153.158 135.571C153.568 135.758 153.884 136.031 154.104 136.387C154.325 136.743 154.434 137.174 154.432 137.68C154.432 138.19 154.322 138.626 154.101 138.987C153.883 139.348 153.57 139.624 153.161 139.815C152.753 140.005 152.265 140.101 151.695 140.101ZM151.695 139.286C152.083 139.286 152.394 139.153 152.625 138.885C152.857 138.617 152.971 138.215 152.969 137.68C152.969 137.328 152.916 137.035 152.81 136.8C152.707 136.566 152.559 136.39 152.367 136.272C152.177 136.154 151.954 136.095 151.695 136.095C151.309 136.095 151.001 136.227 150.769 136.492C150.537 136.756 150.42 137.152 150.418 137.68C150.418 138.037 150.47 138.335 150.574 138.574C150.68 138.811 150.828 138.99 151.02 139.109C151.212 139.227 151.437 139.286 151.695 139.286Z" fill="#C8C8C8"/>
<mask id="mask6_219_836" style="mask-type:luminance" maskUnits="userSpaceOnUse" x="169" y="100" width="17" height="29">
<path d="M185.805 100.989H169.83V128.364H185.805V100.989Z" fill="white"/>
</mask>
<g mask="url(#mask6_219_836)">
<path d="M169.83 106.464C169.83 103.441 173.406 100.989 177.817 100.989C182.228 100.989 185.805 103.441 185.805 106.464V128.364H169.83V106.464Z" fill="#001B43"/>
</g>
<path d="M172.224 139.999V139.291L174.636 137.76C174.841 137.624 175.013 137.501 175.153 137.392C175.294 137.283 175.4 137.177 175.473 137.073C175.546 136.967 175.583 136.852 175.583 136.73C175.583 136.594 175.537 136.477 175.447 136.378C175.356 136.279 175.233 136.202 175.076 136.149C174.92 136.095 174.742 136.067 174.543 136.067C174.336 136.067 174.155 136.096 174.001 136.154C173.846 136.211 173.727 136.294 173.644 136.401C173.56 136.508 173.518 136.636 173.518 136.784H172.157C172.157 136.48 172.258 136.217 172.459 135.993C172.659 135.769 172.941 135.596 173.302 135.473C173.664 135.351 174.081 135.29 174.553 135.29C175.039 135.29 175.461 135.348 175.821 135.467C176.182 135.583 176.464 135.745 176.665 135.952C176.865 136.159 176.966 136.396 176.966 136.664C176.966 136.839 176.915 137.013 176.813 137.183C176.714 137.355 176.536 137.544 176.281 137.753C176.025 137.96 175.664 138.209 175.198 138.499L174.209 139.164V139.196H177.055V139.999H172.224ZM180.75 140.101C180.181 140.099 179.691 140.003 179.281 139.812C178.873 139.622 178.559 139.346 178.338 138.985C178.12 138.623 178.011 138.189 178.014 137.68C178.014 137.174 178.123 136.742 178.342 136.385C178.562 136.028 178.877 135.757 179.285 135.571C179.695 135.383 180.184 135.29 180.75 135.29C181.318 135.29 181.805 135.383 182.213 135.571C182.624 135.758 182.939 136.031 183.16 136.387C183.38 136.743 183.489 137.174 183.487 137.68C183.487 138.19 183.377 138.626 183.157 138.987C182.938 139.348 182.625 139.624 182.217 139.815C181.809 140.005 181.32 140.101 180.75 140.101ZM180.75 139.286C181.139 139.286 181.449 139.153 181.68 138.885C181.912 138.617 182.027 138.215 182.024 137.68C182.024 137.328 181.972 137.035 181.866 136.8C181.762 136.566 181.614 136.39 181.423 136.272C181.233 136.154 181.009 136.095 180.75 136.095C180.364 136.095 180.056 136.227 179.824 136.492C179.592 136.756 179.476 137.152 179.473 137.68C179.473 138.037 179.525 138.335 179.629 138.574C179.735 138.811 179.884 138.99 180.075 139.109C180.267 139.227 180.493 139.286 180.75 139.286Z" fill="#C8C8C8"/>
</g>
</g>
<defs>
<clipPath id="clip0_219_836">
<rect width="213" height="146" fill="white" transform="translate(0.316895 0.614258)"/>
</clipPath>
</defs>
</svg>
