<svg width="29" height="30" viewBox="0 0 29 30" fill="none" xmlns="http://www.w3.org/2000/svg">
<path d="M14.5 3.21875C21.0066 3.21875 26.2812 8.49339 26.2812 15C26.2813 21.5066 21.0066 26.7812 14.5 26.7812C7.99339 26.7812 2.71875 21.5066 2.71875 15C2.71875 8.49339 7.99339 3.21875 14.5 3.21875ZM14.5 7.66406C14.0858 7.66406 13.75 7.99985 13.75 8.41406L13.75 13.3525C13.1239 13.638 12.6875 14.2669 12.6875 15C12.6875 16.001 13.499 16.8125 14.5 16.8125C15.2097 16.8125 15.8226 16.4038 16.1201 15.8096H19.9375C20.3516 15.8096 20.6873 15.4736 20.6875 15.0596C20.6873 14.6455 20.3516 14.3096 19.9375 14.3096H16.1758C16.0004 13.8844 15.6673 13.5428 15.25 13.3525L15.25 8.41406C15.25 7.99985 14.9142 7.66406 14.5 7.66406Z" fill="#1CDAFF"/>
</svg>
