<svg width="29" height="30" viewBox="0 0 29 30" fill="none" xmlns="http://www.w3.org/2000/svg">
<path d="M20.2396 4.42712H8.76042C7.55986 4.42712 6.95958 4.42712 6.46197 4.53505C4.64248 4.92966 3.22128 6.35086 2.82667 8.17035C2.71875 8.66795 2.71875 9.26823 2.71875 10.4688H26.2812C26.2812 9.26823 26.2812 8.66795 26.1733 8.17035C25.7787 6.35086 24.3575 4.92966 22.538 4.53505C22.0404 4.42712 21.4401 4.42712 20.2396 4.42712Z" fill="#1CDAFF"/>
<path d="M26.2812 17.0225C26.2812 20.5847 26.2812 22.3666 25.374 23.6152C25.0811 24.0184 24.7264 24.3731 24.3232 24.666C23.0747 25.5731 21.2934 25.5732 17.7314 25.5732H11.2686C7.70655 25.5732 5.92534 25.5731 4.67676 24.666C4.27359 24.3731 3.91892 24.0184 3.62598 23.6152C2.71881 22.3666 2.71875 20.5847 2.71875 17.0225V12.2812H26.2812V17.0225ZM21.75 14.0938C21.2495 14.0938 20.8438 14.4995 20.8438 15C20.8438 15.5005 21.2495 15.9062 21.75 15.9062C22.2505 15.9062 22.6562 15.5005 22.6562 15C22.6562 14.4995 22.2505 14.0938 21.75 14.0938ZM16.3125 14.25C15.8983 14.25 15.5625 14.5858 15.5625 15C15.5625 15.4142 15.8983 15.75 16.3125 15.75H18.7295L18.8057 15.7461C19.1839 15.7078 19.4795 15.3884 19.4795 15C19.4795 14.6116 19.1839 14.2922 18.8057 14.2539L18.7295 14.25H16.3125Z" fill="#57F7FD"/>
</svg>
