<svg width="35" height="30" viewBox="0 0 35 30" fill="none" xmlns="http://www.w3.org/2000/svg">
<path d="M1.81689 28.1143C2.27366 27.5737 2.48541 27.224 2.59973 26.9706C2.70223 26.7433 2.74944 26.4901 2.86376 26.2714C2.99724 26.0162 3.10112 25.7215 3.19828 25.4937C3.30132 25.2521 3.50561 25.0221 3.58561 24.8208C3.66802 24.6134 3.84039 24.4454 3.9901 24.1484C4.11727 23.8961 4.22798 23.7114 4.38614 23.5015C4.52777 23.3134 4.66732 23.1169 4.87881 23.0291C5.15862 22.9129 5.56501 22.9418 5.86416 22.9153C5.93543 22.909 5.98746 22.8894 6.51973 22.8805C7.05201 22.8715 8.0627 22.8715 8.6095 22.8629C9.20907 22.8534 9.41135 22.7061 9.41135 22.7061C9.41135 22.7061 9.82429 22.3483 9.96607 22.147C10.1053 21.9493 10.3175 21.7716 10.5815 21.5616C10.8376 21.358 11.0568 21.1949 11.3902 21.0979C12.186 20.8665 12.939 21.2374 12.939 21.2374C12.939 21.2374 13.2639 21.4804 13.9088 21.0898C14.5537 20.6992 13.9723 19.9034 14.2169 19.1938C14.3097 18.9245 14.4986 18.5209 14.4986 18.5209C14.6027 18.296 14.7362 18.1017 14.8154 17.8917C14.8154 17.8917 15.0879 17.4726 15.1764 17.2626C15.2647 17.0528 15.4047 16.8435 15.6334 16.59C15.8243 16.3784 16.0025 16.0749 16.1794 15.8471C16.1794 15.8471 16.4986 15.4718 16.7687 15.3225C17.029 15.1787 17.235 15.1301 17.499 15.1037C17.7692 15.0766 17.9743 14.9729 18.2296 14.9029C18.4481 14.8429 18.6956 14.8156 18.9688 14.7021C19.2002 14.606 19.4528 14.5534 19.7168 14.4835C19.9813 14.4133 20.1921 14.3437 20.4036 14.2651C20.6288 14.1813 20.8257 14.0816 21.0372 13.9594C21.2569 13.8325 21.4594 13.7146 21.7234 13.5838C22.0123 13.4407 22.1987 13.2606 22.3576 13.0249C22.4982 12.8164 22.5863 12.5969 22.6309 12.1607C22.6636 11.8408 22.8323 11.6007 22.9913 11.3821C23.1955 11.1013 23.466 10.8489 23.6775 10.7525C23.8961 10.6528 24.8315 10.6036 25.5515 10.6993C25.8006 10.7324 26.3352 10.9003 26.3352 10.9003C26.3352 10.9003 27.682 10.9706 28.3331 10.9098C28.6053 10.8843 28.8342 10.7787 29.0636 10.7C29.2952 10.6207 29.3981 10.3425 29.4953 10.089C29.5867 9.85056 29.6273 9.57391 29.7504 9.29395C29.8671 9.02824 29.9442 8.8221 30.0059 8.60348C30.0806 8.33917 30.1554 8.08812 30.2259 7.82599C30.3021 7.54266 30.4194 7.30171 30.4986 7.09174C30.583 6.8681 30.6834 6.67259 30.7539 6.45397C30.8348 6.20328 30.8598 5.95643 30.9913 5.57214C31.1169 5.2049 31.071 4.87329 31.1148 4.61036C31.164 4.3157 31.1766 3.99985 31.3519 3.69289C31.4662 3.49292 31.5283 3.26482 31.6513 3.0462C31.7898 2.80016 31.8451 2.58327 31.9682 2.3733C32.0914 2.1631 32.2665 1.91954 32.4434 1.69174C32.5883 1.50519 32.8125 1.41204 33.024 1.36774C33.2355 1.32397 33.4114 1.28936 33.5431 1.22829C33.6051 1.20181 33.6574 1.18451 33.8169 1.11426" stroke="#22FFFF" stroke-width="2" stroke-linecap="round" stroke-linejoin="round"/>
</svg>
