<svg width="35" height="29" viewBox="0 0 35 29" fill="none" xmlns="http://www.w3.org/2000/svg">
<path d="M1.81689 27.6143C2.44029 27.1324 3.47558 26.3866 3.8825 26.1244C4.3009 25.8549 4.8043 25.528 5.30312 25.1562C5.4201 25.069 5.43323 24.9332 5.5434 24.8761C6.07557 24.6007 6.57593 24.7073 7.03766 24.5217C7.54032 24.3197 8.08845 24.3719 8.67918 24.2791C9.66969 24.1235 10.1192 23.8889 10.6545 23.5904C11.1273 23.3268 11.3017 22.8089 11.5597 22.2683C11.6248 22.132 11.707 22.0262 11.7995 21.9139C12.5233 21.0342 14.659 21.6506 15.2669 21.8742C15.9388 22.1213 16.5424 21.8384 16.7633 21.6712C17.0029 21.49 17.2068 21.2425 17.3729 21.001C17.6831 20.5498 17.5401 19.8661 17.632 18.7889C17.9113 15.5151 17.7615 14.6873 17.8717 14.0875C17.9811 13.4918 18.0561 12.7464 18.112 12.2986C18.1698 11.8359 18.3152 11.3309 18.4253 10.8451C18.5374 10.3508 18.7204 9.76563 18.7763 9.09424C18.819 8.5823 19.2364 8.16234 19.4401 7.71456C19.6507 7.25178 19.9739 6.96826 20.2335 6.6334C20.3657 6.46295 20.7124 6.48302 21.044 6.51992C21.6047 6.5823 21.9669 7.18963 22.3739 7.4138C22.9299 7.72012 23.3333 8.60509 23.6655 9.07132C24.0858 9.66133 24.4406 10.1324 24.8464 10.5069C25.0423 10.6878 25.5822 10.7316 26.246 10.6947C26.6327 10.6732 26.84 10.3973 27.0426 10.1743C27.2295 9.96863 27.3206 9.7265 27.3759 8.72863C27.618 4.36569 27.7624 3.83994 28.058 3.35414C28.3481 2.87747 28.6858 2.46026 29.054 2.12372C29.2508 1.94382 29.4974 1.8252 29.828 1.7134C30.7745 1.39322 31.268 1.93477 31.8033 2.12205C32.2565 2.28059 32.5967 2.64362 33.353 2.58939C33.4847 2.49716 33.4847 2.31268 33.5213 2.1623C33.5578 2.01192 33.6309 1.90123 33.8169 1.67538" stroke="#1E69F4" stroke-width="2" stroke-linecap="round"/>
</svg>
