<svg width="29" height="30" viewBox="0 0 29 30" fill="none" xmlns="http://www.w3.org/2000/svg">
<rect y="0.5" width="29" height="29" rx="14.5" fill="#1E69F4" fill-opacity="0.22"/>
<path d="M20.5418 10.1667V10.1667C20.5418 6.82995 17.8369 4.125 14.5002 4.125V4.125C11.1634 4.125 8.4585 6.82995 8.4585 10.1667V10.1667" stroke="#57F7FD" stroke-width="1.5" stroke-linejoin="round"/>
<path d="M17.7007 9.2605C21.2628 9.2605 23.0439 9.26057 24.2925 10.1677C24.6957 10.4607 25.0503 10.8153 25.3433 11.2185C26.2504 12.4671 26.2505 14.2482 26.2505 17.8103V18.2312C26.2505 21.7933 26.2503 23.5744 25.3433 24.823C25.0503 25.2262 24.6957 25.5808 24.2925 25.8738C23.0439 26.7809 21.2628 26.781 17.7007 26.781H11.2378C7.67568 26.781 5.89458 26.7809 4.646 25.8738C4.24282 25.5808 3.88815 25.2262 3.59521 24.823C2.68817 23.5744 2.68799 21.7933 2.68799 18.2312V17.8103C2.68799 14.2482 2.68806 12.4671 3.59521 11.2185C3.88818 10.8153 4.24277 10.4607 4.646 10.1677C5.89458 9.26057 7.67568 9.2605 11.2378 9.2605H17.7007ZM14.5005 13.49C12.6653 13.49 11.1772 14.978 11.1772 16.8132C11.1775 18.3902 12.2767 19.7096 13.7505 20.0496V22.2498C13.7507 22.6638 14.0864 22.9998 14.5005 22.9998C14.9143 22.9994 15.2503 22.6636 15.2505 22.2498V20.0486C16.7238 19.7082 17.8225 18.3899 17.8228 16.8132C17.8228 14.9782 16.3354 13.4903 14.5005 13.49Z" fill="#57F7FD"/>
</svg>
