<svg width="32" height="50" viewBox="0 0 32 50" fill="none" xmlns="http://www.w3.org/2000/svg">
<mask id="mask0_1_7516" style="mask-type:luminance" maskUnits="userSpaceOnUse" x="0" y="0" width="17" height="33">
<path d="M0.419434 0.675022H16.2696V32.4024H0.419434V0.675022Z" fill="white"/>
</mask>
<g mask="url(#mask0_1_7516)">
<mask id="mask1_1_7516" style="mask-type:luminance" maskUnits="userSpaceOnUse" x="0" y="0" width="17" height="33">
<path d="M7.90808 1.91517C7.35514 1.57514 6.71481 1.19221 6.20318 0.868077C5.7138 0.577306 5.0838 0.73302 4.78508 1.21843L0.614189 8.0285C0.468009 8.26764 0.42352 8.55602 0.490254 8.82852C0.556988 9.10181 0.72859 9.33618 0.970105 9.47997C1.42294 9.75247 2.01164 10.1028 2.64243 10.4858C7.07391 13.1829 6.53129 15.8968 4.20672 20.789L1.01062 27.5419C0.890659 27.7969 0.877154 28.0909 0.974872 28.357C1.07338 28.6224 1.27518 28.8361 1.53337 28.9513L8.83045 32.1935C9.35082 32.4231 9.95937 32.1895 10.1969 31.6699C10.8635 30.2439 12.1926 27.4108 13.4184 24.859C17.8547 15.6815 17.5671 7.88153 7.90808 1.91517Z" fill="white"/>
</mask>
<g mask="url(#mask1_1_7516)">
<path d="M17.855 0.57729H0.423828V32.423H17.855V0.57729Z" fill="url(#paint0_linear_1_7516)"/>
</g>
</g>
<mask id="mask2_1_7516" style="mask-type:luminance" maskUnits="userSpaceOnUse" x="16" y="1" width="16" height="33">
<path d="M16.0664 1.8953H31.9794V33.826H16.0664V1.8953Z" fill="white"/>
</mask>
<g mask="url(#mask2_1_7516)">
<mask id="mask3_1_7516" style="mask-type:luminance" maskUnits="userSpaceOnUse" x="16" y="2" width="16" height="32">
<path d="M24.4701 32.4509C25.023 32.7917 25.6642 33.173 26.175 33.4979C26.6636 33.7895 27.2944 33.6338 27.5931 33.1476L31.7632 26.3375C31.9245 26.0968 31.9793 25.7989 31.9142 25.5153C31.849 25.2332 31.6695 24.9893 31.4192 24.8447C30.9656 24.5714 30.3761 24.2211 29.7461 23.8382C25.3146 21.141 25.8564 18.4271 28.1818 13.5349L31.362 6.80345C31.4828 6.54764 31.4955 6.25369 31.3978 5.98834C31.2992 5.7222 31.0982 5.50849 30.8401 5.39409L23.5422 2.15192C23.021 1.92232 22.4133 2.15589 22.1765 2.67546C21.5092 4.10071 20.18 6.93454 18.955 9.48553C14.5235 18.6837 14.8214 26.4837 24.4701 32.4509Z" fill="white"/>
</mask>
<g mask="url(#mask3_1_7516)">
<path d="M31.9792 1.92233H14.5234V33.7895H31.9792V1.92233Z" fill="url(#paint1_linear_1_7516)"/>
</g>
</g>
<path d="M9.78854 36.4897L4.94872 44.2976H9.46758V46.2488H1.07178L5.89571 38.4409H1.75501V36.4897H9.78854Z" fill="white"/>
<path d="M14.8602 40.1824H17.2722L12.5087 49.325H10.0935L12.1877 45.3019L9.31494 40.1824H11.7269L13.4175 43.2903L14.8602 40.1824Z" fill="white"/>
<path d="M18.8569 40.1824L20.3346 43.481L21.8154 40.1824H24.2973L21.0464 46.2488H19.6259L16.375 40.1824H18.8569Z" fill="white"/>
<path d="M24.9197 45.5275C24.246 44.9284 23.9092 44.1594 23.9092 43.2204C23.9092 42.2821 24.2595 41.5123 24.961 40.9101C25.6617 40.3063 26.5293 40.0044 27.5637 40.0044C28.5806 40.0044 29.437 40.3087 30.1345 40.9164C30.8337 41.5226 31.1832 42.2909 31.1832 43.2204C31.1832 44.1507 30.8416 44.9173 30.16 45.5211C29.4775 46.1249 28.6124 46.4268 27.5637 46.4268C26.4745 46.4268 25.5934 46.1273 24.9197 45.5275ZM26.5372 42.1939C26.2655 42.4609 26.1305 42.8033 26.1305 43.2204C26.1305 43.6382 26.2608 43.9791 26.5213 44.2436C26.7819 44.509 27.1251 44.6409 27.551 44.6409C27.9617 44.6409 28.2985 44.5074 28.5615 44.2404C28.8261 43.9719 28.9587 43.6319 28.9587 43.2204C28.9587 42.8033 28.8221 42.4609 28.5488 42.1939C28.2771 41.9254 27.945 41.7903 27.551 41.7903C27.1482 41.7903 26.8105 41.9254 26.5372 42.1939Z" fill="white"/>
<defs>
<linearGradient id="paint0_linear_1_7516" x1="9.1394" y1="0.57729" x2="12.9766" y2="32.3948" gradientUnits="userSpaceOnUse">
<stop stop-color="#2684FF"/>
<stop offset="0.302885" stop-color="#2598FF"/>
<stop offset="0.524038" stop-color="#5CFFFF"/>
<stop offset="0.658654" stop-color="#3BBFEF"/>
<stop offset="0.759615" stop-color="#289BE6"/>
<stop offset="0.899038" stop-color="#197FDF"/>
<stop offset="1" stop-color="#075CD6"/>
</linearGradient>
<linearGradient id="paint1_linear_1_7516" x1="23.2513" y1="1.92233" x2="27.0884" y2="33.762" gradientUnits="userSpaceOnUse">
<stop stop-color="#2684FF"/>
<stop offset="0.302885" stop-color="#2598FF"/>
<stop offset="0.524038" stop-color="#5CFFFF"/>
<stop offset="0.658654" stop-color="#3BBFEF"/>
<stop offset="0.759615" stop-color="#289BE6"/>
<stop offset="0.899038" stop-color="#197FDF"/>
<stop offset="1" stop-color="#075CD6"/>
</linearGradient>
</defs>
</svg>
