<svg width="236" height="222" viewBox="0 0 236 222" fill="none" xmlns="http://www.w3.org/2000/svg">
<path d="M1.31689 221.614C4.74264 217.21 6.33076 214.361 7.18818 212.295C7.95694 210.443 8.31095 208.38 9.16838 206.599C10.1695 204.519 10.9486 202.118 11.6773 200.261C12.4501 198.293 13.9822 196.419 14.5822 194.779C15.2004 193.089 16.4931 191.72 17.6159 189.3C18.5697 187.244 19.4001 185.739 20.5862 184.028C21.6485 182.496 22.6951 180.895 24.2813 180.18C26.3798 179.233 29.4278 179.468 31.6714 179.253C32.2059 179.201 32.5961 179.041 36.5882 178.968C40.5803 178.896 48.1605 178.896 52.2615 178.825C56.7582 178.748 58.2753 177.548 58.2753 177.548C58.2753 177.548 61.3723 174.633 62.4357 172.992C63.4799 171.381 65.0714 169.933 67.0516 168.223C68.9721 166.563 70.6159 165.234 73.1169 164.444C79.0849 162.558 84.7327 165.58 84.7327 165.58C84.7327 165.58 87.1691 167.56 92.006 164.378C96.8429 161.196 92.4821 154.711 94.3169 148.929C95.013 146.735 96.4298 143.446 96.4298 143.446C97.2104 141.613 98.2119 140.031 98.806 138.32C98.806 138.32 100.85 134.904 101.513 133.193C102.176 131.484 103.226 129.778 104.941 127.713C106.372 125.989 107.709 123.516 109.036 121.659C109.036 121.659 111.43 118.602 113.456 117.386C115.408 116.213 116.953 115.818 118.933 115.602C120.96 115.381 122.497 114.536 124.412 113.966C126.051 113.478 127.907 113.255 129.957 112.33C131.692 111.547 133.586 111.119 135.566 110.548C137.55 109.977 139.131 109.41 140.717 108.769C142.406 108.087 143.883 107.274 145.469 106.279C147.117 105.245 148.636 104.284 150.616 103.218C152.783 102.052 154.18 100.584 155.372 98.6642C156.427 96.9653 157.087 95.1762 157.422 91.622C157.667 89.0161 158.933 87.0597 160.125 85.2783C161.656 82.99 163.685 80.9339 165.271 80.1478C166.911 79.3355 173.927 78.9346 179.327 79.7143C181.195 79.984 185.204 81.3525 185.204 81.3525C185.204 81.3525 195.305 81.9249 200.188 81.4294C202.23 81.2222 203.947 80.3614 205.667 79.7207C207.404 79.0741 208.176 76.8073 208.905 74.7418C209.59 72.799 209.895 70.5447 210.818 68.2636C211.694 66.0986 212.271 64.4189 212.735 62.6376C213.295 60.4839 213.856 58.4383 214.384 56.3024C214.956 53.9938 215.836 52.0306 216.43 50.3197C217.062 48.4974 217.816 46.9044 218.345 45.123C218.951 43.0803 219.139 41.069 220.125 37.9378C221.067 34.9454 220.723 32.2434 221.052 30.1011C221.42 27.7001 221.515 25.1265 222.83 22.6253C223.686 20.9959 224.153 19.1374 225.075 17.356C226.114 15.3512 226.529 13.584 227.452 11.8731C228.375 10.1604 229.689 8.17581 231.016 6.31969C232.102 4.79961 233.784 4.04067 235.37 3.67969C236.957 3.323 238.275 3.04105 239.263 2.54338C239.729 2.32766 240.121 2.18669 241.317 1.61426" stroke="white" stroke-width="2" stroke-linecap="round" stroke-linejoin="round"/>
</svg>
