<svg width="92" height="40" viewBox="0 0 92 40" fill="none" xmlns="http://www.w3.org/2000/svg">
<path d="M26.4846 0.5L11.7795 24.2232H25.5094V30.1515H0L14.6568 6.42838H2.0759V0.5H26.4846Z" fill="white"/>
<path d="M41.8945 11.7217H49.2229L34.7495 39.5001H27.4115L33.7743 27.2764L25.0459 11.7217H32.3743L37.5109 21.1646L41.8945 11.7217Z" fill="white"/>
<path d="M54.0394 11.7217L58.5291 21.7439L63.0285 11.7217H70.5693L60.6919 30.1537H56.3759L46.4985 11.7217H54.0394Z" fill="white"/>
<path d="M72.4581 27.9587C70.4112 26.1387 69.3877 23.8021 69.3877 20.9489C69.3877 18.0982 70.4522 15.7592 72.5836 13.9295C74.7126 12.095 77.3485 11.1777 80.4913 11.1777C83.581 11.1777 86.1832 12.1022 88.3025 13.9488C90.4267 15.7906 91.4888 18.1248 91.4888 20.9489C91.4888 23.7755 90.4508 26.1049 88.3797 27.9394C86.3063 29.7739 83.6776 30.6912 80.4913 30.6912C77.182 30.6912 74.505 29.7812 72.4581 27.9587ZM77.3727 17.8303C76.5471 18.6413 76.1368 19.6817 76.1368 20.9489C76.1368 22.2186 76.5326 23.2541 77.3244 24.058C78.1161 24.8642 79.1589 25.2649 80.4527 25.2649C81.7007 25.2649 82.7241 24.8593 83.5231 24.0483C84.3269 23.2324 84.73 22.1993 84.73 20.9489C84.73 19.6817 84.3148 18.6413 83.4845 17.8303C82.659 17.0144 81.65 16.604 80.4527 16.604C79.2289 16.604 78.203 17.0144 77.3727 17.8303Z" fill="white"/>
</svg>
